<svg width="135" height="16" viewBox="0 0 135 16" fill="none" xmlns="http://www.w3.org/2000/svg">
<path d="M122.934 0.610232C126.395 3.9848 133.068 10.5358 133.068 10.5224C133.068 7.14111 133.068 3.75647 133.068 0.358398H134.979C134.979 0.741185 135.033 14.8002 134.966 15.1226C134.702 14.9211 125.238 5.20367 124.876 4.81753V15.408H122.938V0.610232H122.934Z" fill="#333333"/>
<path d="M63.8365 0.667317C63.9008 0.667317 73.9331 10.566 73.9568 10.566V0.344971C73.9974 0.344971 75.2725 0.344971 75.9051 0.344971V15.1091C75.6277 14.8338 65.8085 4.85447 65.7848 4.87126V15.3643C65.7645 15.3811 65.7544 15.3945 65.7442 15.4012C65.7341 15.408 65.7206 15.4147 65.7104 15.4147C65.0914 15.4147 64.4691 15.4147 63.8399 15.4147V0.667317H63.8365Z" fill="#333333"/>
<path d="M14.1656 14.9312H11.9061C11.5544 14.1388 11.2026 13.3464 10.8407 12.5271H3.27081C2.83109 13.2826 2.55035 14.1421 2.12078 14.9245H0C0.0304419 14.8506 6.66338 1.32215 6.91707 0.727824C6.9306 0.694246 6.94413 0.65731 6.97795 0.56665C7.17751 0.946079 14.1115 14.8674 14.1656 14.9279V14.9312ZM9.61963 10.4049C9.43021 10.0121 7.21134 5.43543 7.03545 5.08958C6.8528 5.52273 5.1582 9.00139 4.48172 10.4049H9.61963Z" fill="#333333"/>
<path d="M28.3921 15.1932C27.7698 13.9441 21.0658 0.415604 21.0421 0.365238H23.1933C23.491 0.96628 28.3549 11.2209 28.382 11.325C28.4361 11.2478 33.618 0.412247 33.645 0.351807C34.3418 0.351807 35.0285 0.351807 35.7489 0.351807C35.5257 0.795033 29.0889 13.7493 28.3921 15.1932Z" fill="#333333"/>
<path d="M88.4878 15.4047H86.7255V0.361816C87.3039 0.361816 87.8688 0.361816 88.4878 0.361816V15.4047Z" fill="#333333"/>
<path d="M53.9058 2.3528C53.8415 2.3528 47.8377 2.3528 44.8409 2.3528V0.36499H53.9058V2.3528Z" fill="#333333"/>
<path d="M44.8409 6.87939H53.9058V8.88063H44.8409V6.87939Z" fill="#333333"/>
<path d="M53.8111 13.4133C53.855 13.457 53.8821 13.4838 53.9125 13.5141C53.9125 14.142 53.9125 14.7665 53.9125 15.4045H44.851V13.4133H53.8144H53.8111Z" fill="#333333"/>
<path d="M105.731 2.17181C108.901 2.17181 111.481 4.73379 111.481 7.88003C111.481 11.0263 108.901 13.5883 105.731 13.5883C102.562 13.5883 99.9812 11.0263 99.9812 7.88003C99.9812 4.73379 102.562 2.17181 105.731 2.17181ZM105.731 0.49292C101.622 0.49292 98.29 3.80033 98.29 7.88003C98.29 11.9597 101.622 15.2671 105.731 15.2671C109.841 15.2671 113.173 11.9597 113.173 7.88003C113.173 3.80033 109.841 0.49292 105.731 0.49292Z" fill="#333333"/>
</svg>
